<svg version="1.1" viewBox="0 0 517.12 512" xmlns="http://www.w3.org/2000/svg" style="max-height: 500px" width="517.12" height="512"><path fill-rule="evenodd" fill="#ec4444" stroke="none" d="M 313.241 36.995 C 307.015 40.790, 304.137 48.045, 306.030 55.166 C 307.041 58.966, 311.116 63.449, 339.077 91.520 L 370.972 123.540 338.965 155.520 C 304.684 189.773, 304.090 190.543, 305.602 198.765 C 306.531 203.813, 313.187 210.469, 318.235 211.398 C 326.457 212.910, 327.227 212.316, 361.480 178.035 L 393.460 146.028 425.480 177.923 C 453.551 205.884, 458.034 209.959, 461.834 210.970 C 472.316 213.757, 481.988 206.425, 481.996 195.684 C 481.998 193.036, 481.503 189.886, 480.895 188.684 C 480.287 187.483, 465.556 172.216, 448.158 154.757 L 416.526 123.015 448.698 90.757 C 470.217 69.180, 481.097 57.570, 481.558 55.690 C 482.624 51.341, 481.487 44.492, 479.153 41.215 C 475.302 35.807, 465.406 33.210, 459.684 36.105 C 458.483 36.713, 443.212 51.448, 425.750 68.849 L 394 100.488 362.250 68.849 C 344.788 51.448, 329.517 36.713, 328.316 36.105 C 324.765 34.309, 316.884 34.774, 313.241 36.995 M 221.455 221.455 C 217.392 225.517, 218.215 232.026, 223.113 234.558 C 231.464 238.877, 238.805 227.530, 231.644 221.370 C 228.109 218.329, 224.550 218.359, 221.455 221.455 M 282 277.294 C 276.569 280.041, 275.914 287.214, 280.747 291.016 C 284.135 293.681, 287.575 293.516, 290.545 290.545 C 294.592 286.499, 293.785 279.975, 288.928 277.463 C 285.513 275.697, 285.174 275.688, 282 277.294 M 39.008 302.193 C 32.971 305.293, 30 309.917, 30 316.214 C 30 318.918, 30.497 322.114, 31.105 323.316 C 31.713 324.517, 46.448 339.788, 63.849 357.250 L 95.488 389 63.849 420.750 C 46.448 438.212, 31.713 453.483, 31.105 454.684 C 28.210 460.406, 30.807 470.302, 36.215 474.153 C 39.492 476.487, 46.341 477.624, 50.690 476.558 C 52.570 476.097, 64.180 465.217, 85.757 443.698 L 118.015 411.526 149.757 443.158 C 167.216 460.556, 182.483 475.287, 183.684 475.895 C 186.792 477.467, 194.592 477.262, 197.961 475.520 C 204.435 472.173, 207.889 464.053, 205.947 456.750 C 204.966 453.059, 200.621 448.287, 172.923 420.480 L 141.028 388.460 173.035 356.480 C 207.262 322.282, 207.921 321.429, 206.403 313.333 C 205.476 308.394, 199.787 302.289, 194.877 300.967 C 186.067 298.595, 186.389 298.355, 150.987 333.609 L 118.474 365.986 87.987 335.447 C 71.219 318.651, 56.129 304.049, 54.454 302.999 C 49.376 299.815, 44.169 299.543, 39.008 302.193"/><path fill-rule="evenodd" fill="#649ccc" stroke="none" d="M 250.073 2.635 C 248.002 5.268, 248 5.367, 248 126.635 L 248 248 126.635 248 C 5.367 248, 5.268 248.002, 2.635 250.073 C -1.087 253, -1.087 259, 2.635 261.927 C 5.268 263.998, 5.367 264, 126.635 264 L 248 264 248 385.365 C 248 506.633, 248.002 506.732, 250.073 509.365 C 253 513.087, 259 513.087, 261.927 509.365 C 263.998 506.732, 264 506.633, 264 385.365 L 264 264 385.423 264 L 506.847 264 509.923 261.411 C 512.433 259.300, 513 258.070, 513 254.744 C 513 252.502, 512.715 250.952, 512.366 251.301 C 512.017 251.649, 510.607 251.049, 509.231 249.967 C 506.775 248.035, 504.543 248, 385.365 248 L 264 248 264 126.635 C 264 5.367, 263.998 5.268, 261.927 2.635 C 259 -1.087, 253 -1.087, 250.073 2.635 M 99.500 36.657 C 66.013 43.801, 38.974 71.108, 31.472 105.359 C 30.131 111.480, 29.859 116.237, 30.240 126.859 C 30.661 138.620, 31.160 141.820, 33.856 150.076 C 41.389 173.148, 57.735 191.989, 79.330 202.494 C 93.093 209.189, 101.901 211.215, 117.500 211.273 C 142.418 211.366, 162.193 203.466, 179.513 186.500 C 188.506 177.690, 192.227 172.660, 197.370 162.360 C 223.136 110.760, 192.730 48.433, 135.965 36.493 C 126.994 34.606, 108.728 34.688, 99.500 36.657 M 109.402 63.950 C 86.320 67.546, 67.138 84.601, 60.419 107.500 C 58.065 115.524, 58.062 130.480, 60.414 138.444 C 63.737 149.700, 68.054 157.062, 75.996 165.015 C 95.013 184.059, 122.509 188.280, 146.314 175.808 C 154.426 171.558, 166.558 159.426, 170.808 151.314 C 190.968 112.833, 165.215 66.585, 122 63.663 C 117.875 63.384, 112.206 63.514, 109.402 63.950 M 279.974 221.527 C 273.610 228.302, 280.763 238.759, 288.887 234.558 C 293.785 232.026, 294.608 225.517, 290.545 221.455 C 287.306 218.215, 283.059 218.244, 279.974 221.527 M 0.272 256 C 0.272 258.475, 0.467 259.488, 0.706 258.250 C 0.944 257.012, 0.944 254.988, 0.706 253.750 C 0.467 252.512, 0.272 253.525, 0.272 256 M 223.500 277.131 C 218.322 280.025, 217.345 286.436, 221.455 290.545 C 224.550 293.641, 228.109 293.671, 231.644 290.630 C 236.768 286.222, 234.650 278.050, 228 276.569 C 226.625 276.263, 224.600 276.516, 223.500 277.131 M 382.061 301.024 C 345.524 306.109, 316.251 332.998, 307.356 369.647 C 305.112 378.890, 305.109 399.098, 307.350 408.329 C 315.597 442.299, 342.292 468.409, 376.035 475.507 C 385.281 477.452, 402.078 477.411, 411.792 475.420 C 445.681 468.473, 473.468 440.685, 480.419 406.792 C 487.113 374.153, 474.549 339.628, 448.586 319.313 C 440.015 312.607, 426.068 305.702, 415.776 303.070 C 406.593 300.722, 391.023 299.777, 382.061 301.024 M 379.202 331.022 C 368.256 333.890, 360.506 338.427, 351.966 346.966 C 343.304 355.628, 338.865 363.300, 335.975 374.596 C 327.236 408.767, 350.598 442.962, 386.141 448.024 C 415.033 452.139, 443.076 433.488, 451.581 404.500 C 453.935 396.476, 453.938 381.520, 451.586 373.556 C 448.263 362.300, 443.946 354.938, 436.004 346.985 C 420.584 331.543, 399.659 325.663, 379.202 331.022"/></svg>